<svg width="98" height="98" viewBox="0 0 98 98" fill="none" xmlns="http://www.w3.org/2000/svg">
<path opacity="0.5" d="M97 49C97 75.5097 75.5097 97 49 97C22.4903 97 1.00001 75.5097 1.00001 49C1.00001 22.4903 22.4903 1 49 1C75.5097 1 97 22.4903 97 49ZM5.70166 49C5.70166 72.913 25.087 92.2983 49 92.2983C72.913 92.2983 92.2983 72.913 92.2983 49C92.2983 25.087 72.913 5.70166 49 5.70166C25.087 5.70166 5.70166 25.087 5.70166 49Z" fill="#F68080"/>
<path d="M58.6719 54.2339L51.2178 48.5L58.6719 42.7661C59.2454 42.3223 59.5815 41.6384 59.5825 40.9133C59.5792 40.1882 59.2411 39.5053 58.6665 39.063L48.7498 31.4797C48.723 31.4593 48.6945 31.4412 48.6646 31.4255C48.2753 31.1488 47.8096 31.0001 47.3319 31C46.0221 31.0475 44.988 32.129 44.9991 33.4396V43.6442L40.7386 40.0423C40.4942 39.8441 40.1801 39.7529 39.8675 39.7896C39.555 39.8264 39.2705 39.9877 39.0786 40.2371L37.6579 42.0845C37.276 42.5849 37.3579 43.2976 37.8434 43.6983L43.6092 48.5L37.8511 53.2957C37.3602 53.6952 37.2749 54.4121 37.6579 54.9158L39.0787 56.7629C39.2718 57.014 39.5587 57.1758 39.8735 57.2111C40.1883 57.2464 40.5039 57.1522 40.7478 56.95L44.9992 53.3558V63.5604C44.988 64.8711 46.0223 65.9526 47.3322 66C47.8092 65.9998 48.2743 65.8515 48.6633 65.5754C48.6936 65.5595 48.7226 65.5411 48.7499 65.5204L58.6665 57.937C59.2429 57.4962 59.5814 56.8124 59.5825 56.0868C59.5836 55.3612 59.247 54.6764 58.6719 54.2339ZM57.9578 57.0102L48.1123 64.5391C48.0858 64.5536 48.0604 64.5701 48.0363 64.5884C47.8353 64.7456 47.5878 64.8317 47.3325 64.8333C46.6711 64.7783 46.1631 64.2241 46.1658 63.5604V52.0988C46.1658 51.8718 46.0341 51.6653 45.828 51.5697C45.6221 51.4742 45.3793 51.5068 45.2059 51.6534L40.0032 56.0515L38.5902 54.1984L44.8941 48.9484C45.0271 48.8375 45.104 48.6732 45.104 48.5001C45.104 48.3269 45.0271 48.1626 44.8941 48.0518L38.5825 42.7958L39.9947 40.941L45.2059 45.3467C45.3793 45.4933 45.6221 45.526 45.828 45.4304C46.034 45.3348 46.1658 45.1283 46.1657 44.9012V33.4396C46.163 32.776 46.6709 32.2219 47.3322 32.1667C47.5875 32.1682 47.8351 32.2544 48.0363 32.4116C48.06 32.4298 48.0851 32.4461 48.1115 32.4604L57.9578 39.9899C58.246 40.2103 58.4153 40.5523 58.4158 40.915C58.4163 41.2779 58.248 41.6203 57.9604 41.8415L49.9054 48.0378C49.7619 48.1482 49.6778 48.319 49.6778 48.5001C49.6778 48.6812 49.7619 48.8519 49.9054 48.9624L57.9604 55.1586C58.248 55.3798 58.4164 55.7222 58.4158 56.0851C58.4153 56.4478 58.2461 56.7898 57.9578 57.0102Z" fill="#FF4948"/>
<path d="M49.0824 45.5743C49.4046 45.5743 49.6657 45.3132 49.6657 44.991V38.055L53.415 40.9221L51.06 42.7336C50.8061 42.9306 50.7593 43.2957 50.9552 43.5503C51.1511 43.8049 51.5161 43.8532 51.7715 43.6582L54.7292 41.383C54.8729 41.2724 54.957 41.1011 54.9567 40.9198C54.9565 40.7384 54.8718 40.5675 54.7277 40.4573L49.4367 36.4113C49.2604 36.2765 49.0229 36.2534 48.824 36.3518C48.625 36.4501 48.4991 36.6528 48.499 36.8747V44.9909C48.4991 45.3132 48.7602 45.5743 49.0824 45.5743Z" fill="#FF4948"/>
<path d="M54.7292 55.6173L51.7715 53.3421C51.5161 53.1471 51.1511 53.1953 50.9552 53.45C50.7593 53.7046 50.8061 54.0697 51.06 54.2667L53.415 56.0782L49.6658 58.9452V52.0093C49.6658 51.6871 49.4046 51.426 49.0824 51.426C48.7603 51.426 48.4991 51.6871 48.4991 52.0093V60.1255C48.4991 60.3475 48.625 60.5502 48.824 60.6485C49.023 60.7468 49.2605 60.7237 49.4368 60.5889L54.7278 56.543C54.8719 56.4328 54.9566 56.2619 54.9568 56.0804C54.9571 55.8991 54.873 55.7279 54.7292 55.6173Z" fill="#FF4948"/>
<path d="M94.7956 49C96.5653 49 98.0109 50.4365 97.8953 52.2025C97.1212 64.0288 92.0798 75.2167 83.6482 83.6482C74.4589 92.8375 61.9956 98 49 98C36.0044 98 23.541 92.8375 14.3518 83.6482C5.92024 75.2167 0.878789 64.0288 0.104673 52.2025C-0.0109199 50.4365 1.43466 49 3.2044 49C4.97414 49 6.39625 50.4368 6.5292 52.2015C7.29204 62.3265 11.6541 71.8871 18.8835 79.1165C26.8709 87.1039 37.7041 91.5912 49 91.5912C60.2959 91.5912 71.1291 87.1039 79.1165 79.1165C86.3459 71.8872 90.708 62.3265 91.4708 52.2015C91.6037 50.4368 93.0259 49 94.7956 49Z" fill="#FF4948"/>
<circle cx="48.5" cy="48.5" r="34.5" stroke="#FDD8D8" stroke-width="2" stroke-linecap="round"/>
</svg>
