<svg width="52" height="52" viewBox="0 0 52 52" fill="none" xmlns="http://www.w3.org/2000/svg">
<circle cx="25.5486" cy="26.1151" r="25.4521" transform="rotate(-0.2397 25.5486 26.1151)" fill="white"/>
<path d="M31 16H21C18.2386 16 16 18.2386 16 21V31C16 33.7614 18.2386 36 21 36H31C33.7614 36 36 33.7614 36 31V21C36 18.2386 33.7614 16 31 16Z" stroke="#FF4948" stroke-width="2" stroke-linecap="round" stroke-linejoin="round"/>
<path d="M29.9997 25.3703C30.1231 26.2025 29.981 27.0525 29.5935 27.7993C29.206 28.5461 28.5929 29.1517 27.8413 29.53C27.0898 29.9082 26.2382 30.0399 25.4075 29.9062C24.5768 29.7726 23.8095 29.3804 23.2145 28.7855C22.6196 28.1905 22.2274 27.4232 22.0938 26.5925C21.9601 25.7619 22.0918 24.9102 22.47 24.1587C22.8483 23.4072 23.4539 22.794 24.2007 22.4065C24.9475 22.019 25.7975 21.8769 26.6297 22.0003C27.4786 22.1262 28.2646 22.5218 28.8714 23.1286C29.4782 23.7355 29.8738 24.5214 29.9997 25.3703Z" stroke="#FF4948" stroke-width="2" stroke-linecap="round" stroke-linejoin="round"/>
<path d="M31.5 20.5H31.51" stroke="#FF4948" stroke-width="2" stroke-linecap="round" stroke-linejoin="round"/>
</svg>
