<svg width="98" height="98" viewBox="0 0 98 98" fill="none" xmlns="http://www.w3.org/2000/svg">
<path opacity="0.5" d="M97 49C97 75.5097 75.5097 97 49 97C22.4903 97 1.00001 75.5097 1.00001 49C1.00001 22.4903 22.4903 1.00001 49 1.00001C75.5097 1.00001 97 22.4903 97 49ZM5.70166 49C5.70166 72.913 25.087 92.2983 49 92.2983C72.913 92.2983 92.2983 72.913 92.2983 49C92.2983 25.087 72.913 5.70166 49 5.70166C25.087 5.70166 5.70166 25.087 5.70166 49Z" fill="#F68080"/>
<g clip-path="url(#clip0_2_341)">
<path d="M38.3876 40.5516C38.1359 40.2999 37.7279 40.2999 37.4761 40.5515C35.9662 42.0611 35.1345 44.0667 35.1345 46.1988C35.1345 48.331 35.9661 50.3366 37.4761 51.8462C37.602 51.972 37.7669 52.0349 37.9318 52.0349C38.0968 52.0349 38.2618 51.9719 38.3876 51.8461C38.6393 51.5943 38.6392 51.1863 38.3875 50.9345C37.1211 49.6684 36.4237 47.9866 36.4237 46.1987C36.4237 44.411 37.1211 42.7292 38.3875 41.463C38.6392 41.2114 38.6393 40.8034 38.3876 40.5516Z" fill="#FF4948"/>
<path d="M56.3081 43.74C55.9522 43.74 55.6635 44.0286 55.6635 44.3845V45.3756H54.2101V38.5103C54.2101 35.3648 51.6482 32.8057 48.4992 32.8057C45.3512 32.8057 42.7901 35.3648 42.7901 38.5103V45.3756H41.3367V44.3846C41.3367 44.0287 41.0482 43.7401 40.6922 43.7401C40.3362 43.7401 40.0477 44.0287 40.0477 44.3846V48.187C40.0477 51.9726 42.5526 55.1845 45.9929 56.2543V59.7327H43.7635C42.5316 59.7327 41.5294 60.7335 41.5294 61.9635V63.3162C41.5294 63.8004 41.9243 64.1943 42.4097 64.1943H45.6052C45.9612 64.1943 46.2497 63.9057 46.2497 63.5498C46.2497 63.1939 45.9612 62.9053 45.6052 62.9053H42.8185V61.9635C42.8185 61.4442 43.2425 61.0218 43.7635 61.0218H53.2368C53.7568 61.0218 54.18 61.4443 54.18 61.9635V62.9053H51.3933C51.0374 62.9053 50.7488 63.1939 50.7488 63.5498C50.7488 63.9057 51.0374 64.1943 51.3933 64.1943H54.5907C55.075 64.1943 55.469 63.8004 55.469 63.3162V61.9635C55.469 60.7335 54.4676 59.7327 53.2368 59.7327H51.0055V56.2544C54.4469 55.1848 56.9527 51.9728 56.9527 48.187V44.3846C56.9526 44.0286 56.664 43.74 56.3081 43.74ZM44.0791 38.5103C44.0791 36.0756 46.0619 34.0947 48.4991 34.0947C50.9374 34.0947 52.921 36.0756 52.921 38.5103V40.6405H44.0791V38.5103ZM44.0791 41.9295H52.9211V43.6105H44.0791V41.9295ZM44.0791 44.8995H52.9211V48.187C52.9211 50.6217 50.9375 52.6026 48.4992 52.6026C46.062 52.6026 44.0791 50.6217 44.0791 48.187V44.8995H44.0791ZM49.7164 59.7326H47.2819V56.5454C47.6795 56.603 48.0859 56.6334 48.4992 56.6334C48.9125 56.6334 49.3188 56.603 49.7165 56.5455V59.7326H49.7164ZM55.6635 48.187C55.6635 52.1335 52.4497 55.3443 48.4992 55.3443C44.5498 55.3443 41.3367 52.1336 41.3367 48.187V46.6647H42.7901V48.187C42.7901 51.3325 45.3512 53.8916 48.4992 53.8916C51.6482 53.8916 54.2101 51.3325 54.2101 48.187V46.6647H55.6635V48.187Z" fill="#FF4948"/>
<path d="M61.7386 38.3372C61.4868 38.0855 61.0786 38.0858 60.8271 38.3376C60.5756 38.5894 60.5758 38.9975 60.8276 39.2491C62.6869 41.1067 63.7108 43.5752 63.7108 46.1998C63.7108 48.8244 62.6869 51.2929 60.8276 53.1505C60.5758 53.4021 60.5756 53.8102 60.8272 54.0621C60.9531 54.1881 61.1181 54.2511 61.2831 54.2511C61.448 54.2511 61.6128 54.1882 61.7387 54.0625C63.8417 51.9613 64.9999 49.169 64.9999 46.1998C64.9999 43.2306 63.8417 40.4383 61.7386 38.3372Z" fill="#FF4948"/>
<path d="M59.5228 40.5516C59.2709 40.3 58.8629 40.3002 58.6112 40.552C58.3597 40.8038 58.3599 41.2119 58.6116 41.4635C59.8788 42.7297 60.5767 44.4114 60.5767 46.1991C60.5767 47.9868 59.8788 49.6686 58.6116 50.9347C58.3599 51.1863 58.3597 51.5944 58.6112 51.8463C58.7371 51.9722 58.9022 52.0353 59.0672 52.0353C59.2321 52.0353 59.3969 51.9724 59.5227 51.8467C61.0337 50.3371 61.8658 48.3314 61.8658 46.1992C61.8658 44.0669 61.0337 42.0612 59.5228 40.5516Z" fill="#FF4948"/>
<path d="M33.2891 46.1996C33.2891 43.5748 34.3126 41.1064 36.171 39.2487C36.4228 38.9971 36.4229 38.589 36.1712 38.3372C35.9195 38.0854 35.5115 38.0853 35.2597 38.337C33.1576 40.4382 32 43.2305 32 46.1996C32 49.1687 33.1576 51.961 35.2597 54.0621C35.3855 54.1879 35.5505 54.2508 35.7153 54.2508C35.8803 54.2508 36.0453 54.1878 36.1712 54.0619C36.4228 53.8101 36.4228 53.4021 36.171 53.1504C34.3126 51.2928 33.2891 48.8242 33.2891 46.1996Z" fill="#FF4948"/>
<path d="M48.499 62.9053C48.143 62.9053 47.8544 63.1939 47.8544 63.5498C47.8544 63.9057 48.143 64.1943 48.499 64.1943H48.5026C48.8585 64.1943 49.1454 63.9057 49.1454 63.5498C49.1454 63.1939 48.8549 62.9053 48.499 62.9053Z" fill="#FF4948"/>
</g>
<path d="M94.7956 49C96.5653 49 98.0109 50.4365 97.8953 52.2025C97.1212 64.0288 92.0798 75.2167 83.6482 83.6482C74.4589 92.8375 61.9956 98 49 98C36.0044 98 23.541 92.8375 14.3518 83.6482C5.92024 75.2167 0.878789 64.0288 0.104673 52.2025C-0.0109199 50.4365 1.43466 49 3.2044 49C4.97414 49 6.39625 50.4368 6.5292 52.2015C7.29204 62.3265 11.6541 71.8872 18.8835 79.1165C26.8709 87.1039 37.7041 91.5912 49 91.5912C60.2959 91.5912 71.1291 87.1039 79.1165 79.1165C86.3459 71.8872 90.708 62.3265 91.4708 52.2015C91.6037 50.4368 93.0259 49 94.7956 49Z" fill="#FF4948"/>
<circle cx="48.5" cy="48.5" r="34.5" stroke="#FDD8D8" stroke-width="2" stroke-linecap="round"/>
<defs>
<clipPath id="clip0_2_341">
<rect width="33" height="33" fill="white" transform="translate(32 32)"/>
</clipPath>
</defs>
</svg>
