<svg width="193" height="31" viewBox="0 0 193 31" fill="none" xmlns="http://www.w3.org/2000/svg">
<path d="M14.2516 2.92705C14.551 2.00574 15.8544 2.00574 16.1538 2.92705L18.3914 9.81383C18.5253 10.2258 18.9092 10.5048 19.3425 10.5048L26.5837 10.5048C27.5524 10.5048 27.9552 11.7444 27.1714 12.3138L21.3132 16.5701C20.9627 16.8247 20.816 17.2761 20.9499 17.6881L23.1876 24.5749C23.4869 25.4962 22.4324 26.2623 21.6487 25.6929L15.7905 21.4367C15.44 21.182 14.9654 21.182 14.6149 21.4367L8.75668 25.6929C7.97296 26.2623 6.91848 25.4962 7.21784 24.5749L9.45548 17.6881C9.58936 17.2761 9.4427 16.8247 9.09221 16.5701L3.23397 12.3138C2.45026 11.7444 2.85303 10.5048 3.82176 10.5048L11.0629 10.5048C11.4962 10.5048 11.8801 10.2258 12.014 9.81383L14.2516 2.92705Z" fill="#FDAE38"/>
<path d="M54.6569 2.92705C54.9563 2.00574 56.2597 2.00574 56.559 2.92705L58.7967 9.81383C58.9306 10.2258 59.3145 10.5048 59.7477 10.5048L66.9889 10.5048C67.9576 10.5048 68.3604 11.7444 67.5767 12.3138L61.7185 16.5701C61.368 16.8247 61.2213 17.2761 61.3552 17.6881L63.5928 24.5749C63.8922 25.4962 62.8377 26.2623 62.054 25.6929L56.1958 21.4367C55.8453 21.182 55.3707 21.182 55.0202 21.4367L49.162 25.6929C48.3782 26.2623 47.3238 25.4962 47.6231 24.5749L49.8608 17.6881C49.9946 17.2761 49.848 16.8247 49.4975 16.5701L43.6392 12.3138C42.8555 11.7444 43.2583 10.5048 44.227 10.5048L51.4682 10.5048C51.9014 10.5048 52.2854 10.2258 52.4193 9.81383L54.6569 2.92705Z" fill="#FDAE38"/>
<path d="M95.0622 2.92705C95.3615 2.00574 96.665 2.00574 96.9643 2.92705L99.202 9.81383C99.3358 10.2258 99.7198 10.5048 100.153 10.5048L107.394 10.5048C108.363 10.5048 108.766 11.7444 107.982 12.3138L102.124 16.5701C101.773 16.8247 101.627 17.2761 101.76 17.6881L103.998 24.5749C104.297 25.4962 103.243 26.2623 102.459 25.6929L96.601 21.4367C96.2505 21.182 95.776 21.182 95.4255 21.4367L89.5672 25.6929C88.7835 26.2623 87.729 25.4962 88.0284 24.5749L90.266 17.6881C90.3999 17.2761 90.2532 16.8247 89.9028 16.5701L84.0445 12.3138C83.2608 11.7444 83.6636 10.5048 84.6323 10.5048L91.8735 10.5048C92.3067 10.5048 92.6907 10.2258 92.8245 9.81383L95.0622 2.92705Z" fill="#FDAE38"/>
<path d="M135.467 2.92705C135.767 2.00574 137.07 2.00574 137.37 2.92705L139.607 9.81383C139.741 10.2258 140.125 10.5048 140.558 10.5048L147.799 10.5048C148.768 10.5048 149.171 11.7444 148.387 12.3138L142.529 16.5701C142.179 16.8247 142.032 17.2761 142.166 17.6881L144.403 24.5749C144.703 25.4962 143.648 26.2623 142.865 25.6929L137.006 21.4367C136.656 21.182 136.181 21.182 135.831 21.4367L129.972 25.6929C129.189 26.2623 128.134 25.4962 128.434 24.5749L130.671 17.6881C130.805 17.2761 130.659 16.8247 130.308 16.5701L124.45 12.3138C123.666 11.7444 124.069 10.5048 125.038 10.5048L132.279 10.5048C132.712 10.5048 133.096 10.2258 133.23 9.81383L135.467 2.92705Z" fill="#FDAE38"/>
<path d="M175.873 2.92705C176.172 2.00574 177.476 2.00574 177.775 2.92705L180.013 9.81383C180.146 10.2258 180.53 10.5048 180.964 10.5048L188.205 10.5048C189.173 10.5048 189.576 11.7444 188.793 12.3138L182.934 16.5701C182.584 16.8247 182.437 17.2761 182.571 17.6881L184.809 24.5749C185.108 25.4962 184.054 26.2623 183.27 25.6929L177.412 21.4367C177.061 21.182 176.586 21.182 176.236 21.4367L170.378 25.6929C169.594 26.2623 168.54 25.4962 168.839 24.5749L171.077 17.6881C171.21 17.2761 171.064 16.8247 170.713 16.5701L164.855 12.3138C164.071 11.7444 164.474 10.5048 165.443 10.5048L172.684 10.5048C173.117 10.5048 173.501 10.2258 173.635 9.81383L175.873 2.92705Z" fill="#FDAE38"/>
</svg>
